<svg xmlns="http://www.w3.org/2000/svg" version="1.1" xmlns:xlink="http://www.w3.org/1999/xlink" xmlns:svgjs="http://svgjs.dev/svgjs" width="1000" height="229" viewBox="0 0 1000 229"><g transform="matrix(1,0,0,1,-0.6060606060606233,0.6078309871637941)"><svg viewBox="0 0 396 91" data-background-color="#fafafa" preserveAspectRatio="xMidYMid meet" height="229" width="1000" xmlns="http://www.w3.org/2000/svg" xmlns:xlink="http://www.w3.org/1999/xlink"><g id="tight-bounds" transform="matrix(1,0,0,1,0.2400000000000091,-0.2415398245934739)"><svg viewBox="0 0 395.52 91.48307964918693" height="91.48307964918693" width="395.52"><g><svg viewBox="0 0 648.9063343440013 150.09089267206258" height="91.48307964918693" width="395.52"><g><rect width="6.407785821197371" height="130.32494298587199" x="412.2943084324538" y="9.882974843095298" fill="#130912" opacity="1" stroke-width="0" stroke="transparent" fill-opacity="1" class="rect-qz-0" data-fill-palette-color="primary" rx="1%" id="qz-0" data-palette-color="#130912"></rect></g><g transform="matrix(1,0,0,1,0,20.743386758584627)"><svg viewBox="0 0 395.52 108.60411915489333" height="108.60411915489333" width="395.52"><g id="textblocktransform"><svg viewBox="0 0 395.52 108.60411915489333" height="108.60411915489333" width="395.52" id="textblock"><g><svg viewBox="0 0 395.52 71.05469608284557" height="71.05469608284557" width="395.52"><g transform="matrix(1,0,0,1,0,0)"><svg width="395.52" viewBox="2.65 -39.2 222.07999999999998 39.900000000000006" height="71.05469608284557" data-palette-color="#130912"><path d="M18.55-36.1L18.55-36.1Q21.85-36.1 23.98-35.13 26.1-34.15 27.75-32.85L27.75-32.85Q28.75-32.1 29.28-32.68 29.8-33.25 30-35.4L30-35.4 31.15-35.4Q31.05-33.55 31-30.9 30.95-28.25 30.95-23.9L30.95-23.9 29.8-23.9Q29.45-26.05 29.15-27.33 28.85-28.6 28.43-29.5 28-30.4 27.3-31.3L27.3-31.3Q25.75-33.35 23.4-34.27 21.05-35.2 18.45-35.2L18.45-35.2Q16-35.2 14.03-33.98 12.05-32.75 10.63-30.45 9.2-28.15 8.43-24.9 7.65-21.65 7.65-17.6L7.65-17.6Q7.65-13.4 8.5-10.18 9.35-6.95 10.88-4.75 12.4-2.55 14.48-1.43 16.55-0.3 18.95-0.3L18.95-0.3Q21.2-0.3 23.65-1.2 26.1-2.1 27.5-4.1L27.5-4.1Q28.6-5.55 29.03-7.25 29.45-8.95 29.8-12L29.8-12 30.95-12Q30.95-7.45 31-4.67 31.05-1.9 31.15 0L31.15 0 30 0Q29.8-2.15 29.33-2.7 28.85-3.25 27.75-2.55L27.75-2.55Q25.9-1.25 23.83-0.28 21.75 0.7 18.5 0.7L18.5 0.7Q13.75 0.7 10.18-1.45 6.6-3.6 4.63-7.65 2.65-11.7 2.65-17.4L2.65-17.4Q2.65-23 4.7-27.2 6.75-31.4 10.33-33.75 13.9-36.1 18.55-36.1ZM48.1-26.45L48.1-26.45Q51.3-26.45 53.85-25.05 56.4-23.65 57.92-20.65 59.45-17.65 59.45-12.85L59.45-12.85Q59.45-8.05 57.92-5.08 56.4-2.1 53.85-0.7 51.3 0.7 48.1 0.7L48.1 0.7Q44.95 0.7 42.37-0.7 39.8-2.1 38.27-5.08 36.75-8.05 36.75-12.85L36.75-12.85Q36.75-17.65 38.27-20.65 39.8-23.65 42.37-25.05 44.95-26.45 48.1-26.45ZM48.1-25.45L48.1-25.45Q45.25-25.45 43.42-22.5 41.6-19.55 41.6-12.85L41.6-12.85Q41.6-6.15 43.42-3.23 45.25-0.3 48.1-0.3L48.1-0.3Q50.95-0.3 52.77-3.23 54.6-6.15 54.6-12.85L54.6-12.85Q54.6-19.55 52.77-22.5 50.95-25.45 48.1-25.45ZM75.5-26.45L75.5-26.45Q78.7-26.45 81.25-25.05 83.8-23.65 85.32-20.65 86.84-17.65 86.84-12.85L86.84-12.85Q86.84-8.05 85.32-5.08 83.8-2.1 81.25-0.7 78.7 0.7 75.5 0.7L75.5 0.7Q72.34 0.7 69.77-0.7 67.2-2.1 65.67-5.08 64.14-8.05 64.14-12.85L64.14-12.85Q64.14-17.65 65.67-20.65 67.2-23.65 69.77-25.05 72.34-26.45 75.5-26.45ZM75.5-25.45L75.5-25.45Q72.65-25.45 70.82-22.5 69-19.55 69-12.85L69-12.85Q69-6.15 70.82-3.23 72.65-0.3 75.5-0.3L75.5-0.3Q78.34-0.3 80.17-3.23 82-6.15 82-12.85L82-12.85Q82-19.55 80.17-22.5 78.34-25.45 75.5-25.45ZM97.99-39.2L97.99-39.2 97.99-4.65Q97.99-2.55 98.74-1.8 99.49-1.05 101.29-1.05L101.29-1.05 101.29 0Q100.49-0.05 98.92-0.13 97.34-0.2 95.74-0.2L95.74-0.2Q94.04-0.2 92.29-0.13 90.54-0.05 89.69 0L89.69 0 89.69-1.05Q91.74-1.05 92.62-1.8 93.49-2.55 93.49-4.65L93.49-4.65 93.49-33.2Q93.49-35.45 92.69-36.52 91.89-37.6 89.69-37.6L89.69-37.6 89.69-38.65Q91.29-38.5 92.79-38.5L92.79-38.5Q94.24-38.5 95.57-38.68 96.89-38.85 97.99-39.2ZM113.89-25.75L113.89-25.75 113.89-24.75Q112.64-24.65 111.54-24.08 110.44-23.5 109.39-22.4L109.39-22.4 102.34-15 103.04-16.4 112.34-3.65Q113.19-2.5 113.97-1.85 114.74-1.2 115.84-1.05L115.84-1.05 115.84 0Q115.29-0.05 114.12-0.13 112.94-0.2 111.79-0.2L111.79-0.2Q110.24-0.2 108.64-0.13 107.04-0.05 106.24 0L106.24 0 106.24-1.05Q107.24-1.05 107.64-1.55 108.04-2.05 107.49-2.75L107.49-2.75 101.74-11.15Q100.79-12.5 100.02-12.9 99.24-13.3 97.79-13.35L97.79-13.35 97.79-14.35Q99.39-14.55 100.39-15.03 101.39-15.5 102.29-16.45L102.29-16.45 105.99-20.3Q107.59-21.95 107.59-22.93 107.59-23.9 106.57-24.33 105.54-24.75 103.89-24.75L103.89-24.75 103.89-25.75Q105.19-25.7 106.82-25.63 108.44-25.55 109.54-25.55L109.54-25.55Q110.39-25.55 111.19-25.58 111.99-25.6 112.69-25.65 113.39-25.7 113.89-25.75ZM118.29-34.4L118.29-35.4Q119.34-35.35 121.04-35.3 122.74-35.25 124.39-35.25L124.39-35.25Q126.74-35.25 128.89-35.3 131.04-35.35 131.94-35.35L131.94-35.35Q137.19-35.35 139.84-33.15 142.49-30.95 142.49-27.5L142.49-27.5Q142.49-25.75 141.77-24.08 141.04-22.4 139.37-21.03 137.69-19.65 134.89-18.8L134.89-18.8 134.89-18.7Q138.84-18.2 141.06-16.82 143.29-15.45 144.19-13.6 145.09-11.75 145.09-9.7L145.09-9.7Q145.09-5.45 141.92-2.73 138.74 0 133.09 0L133.09 0Q131.99 0 129.79-0.08 127.59-0.15 124.49-0.15L124.49-0.15Q122.74-0.15 121.04-0.13 119.34-0.1 118.29 0L118.29 0 118.29-1Q119.99-1.1 120.87-1.4 121.74-1.7 122.04-2.6 122.34-3.5 122.34-5.3L122.34-5.3 122.34-30.1Q122.34-31.95 122.04-32.83 121.74-33.7 120.87-34.02 119.99-34.35 118.29-34.4L118.29-34.4ZM130.69-34.4L130.69-34.4Q128.39-34.4 127.69-33.55 126.99-32.7 126.99-30.1L126.99-30.1 126.99-5.3Q126.99-2.7 127.72-1.93 128.44-1.15 130.74-1.15L130.74-1.15Q135.64-1.15 137.87-3.43 140.09-5.7 140.09-9.9L140.09-9.9Q140.09-13.75 138.02-15.85 135.94-17.95 131.19-17.95L131.19-17.95 126.04-17.95Q126.04-17.95 126.04-18.38 126.04-18.8 126.04-18.8L126.04-18.8 130.34-18.8Q133.29-18.8 134.89-19.93 136.49-21.05 137.09-22.93 137.69-24.8 137.69-26.95L137.69-26.95Q137.69-30.65 136.06-32.52 134.44-34.4 130.69-34.4ZM154.24-38.25L154.24-38.25Q155.54-38.25 156.49-37.3 157.44-36.35 157.44-35.05L157.44-35.05Q157.44-33.75 156.49-32.8 155.54-31.85 154.24-31.85L154.24-31.85Q152.94-31.85 151.99-32.8 151.04-33.75 151.04-35.05L151.04-35.05Q151.04-36.35 151.99-37.3 152.94-38.25 154.24-38.25ZM156.84-26.3L156.84-26.3 156.84-4.65Q156.84-2.55 157.71-1.8 158.59-1.05 160.64-1.05L160.64-1.05 160.64 0Q159.79-0.05 158.06-0.13 156.34-0.2 154.59-0.2L154.59-0.2Q152.89-0.2 151.14-0.13 149.39-0.05 148.54 0L148.54 0 148.54-1.05Q150.59-1.05 151.46-1.8 152.34-2.55 152.34-4.65L152.34-4.65 152.34-20.3Q152.34-22.55 151.54-23.63 150.74-24.7 148.54-24.7L148.54-24.7 148.54-25.75Q150.14-25.6 151.64-25.6L151.64-25.6Q153.09-25.6 154.41-25.78 155.74-25.95 156.84-26.3ZM171.24-34.05L171.24-34.05 171.24-25.7 178.64-25.7 178.64-24.7 171.24-24.7 171.24-5.35Q171.24-3 172.09-2.05 172.94-1.1 174.44-1.1L174.44-1.1Q175.94-1.1 177.04-2.33 178.14-3.55 178.94-6.45L178.94-6.45 179.94-6.2Q179.44-3.3 177.96-1.3 176.49 0.7 173.44 0.7L173.44 0.7Q171.74 0.7 170.64 0.28 169.54-0.15 168.69-0.95L168.69-0.95Q167.59-2.1 167.16-3.7 166.74-5.3 166.74-7.95L166.74-7.95 166.74-24.7 161.94-24.7 161.94-25.7 166.74-25.7 166.74-33.35Q167.99-33.4 169.14-33.55 170.29-33.7 171.24-34.05ZM193.03-26.45L193.03-26.45Q197.43-26.45 199.91-23.78 202.38-21.1 202.38-15.45L202.38-15.45 184.73-15.45 184.68-16.4 197.58-16.4Q197.68-18.85 197.18-20.93 196.68-23 195.61-24.25 194.53-25.5 192.83-25.5L192.83-25.5Q190.53-25.5 188.76-23.2 186.98-20.9 186.63-15.9L186.63-15.9 186.78-15.7Q186.68-14.95 186.63-14.05 186.58-13.15 186.58-12.25L186.58-12.25Q186.58-8.85 187.68-6.4 188.78-3.95 190.56-2.68 192.33-1.4 194.23-1.4L194.23-1.4Q196.48-1.4 198.38-2.5 200.28-3.6 201.58-6.4L201.58-6.4 202.58-6Q202.03-4.35 200.78-2.8 199.53-1.25 197.63-0.28 195.73 0.7 193.23 0.7L193.23 0.7Q189.63 0.7 187.06-0.95 184.48-2.6 183.11-5.53 181.73-8.45 181.73-12.25L181.73-12.25Q181.73-16.65 183.13-19.83 184.53-23 187.08-24.73 189.63-26.45 193.03-26.45ZM215.13-26.45L215.13-26.45Q217.13-26.45 218.53-25.8 219.93-25.15 220.58-24.6L220.58-24.6Q222.23-23.25 222.58-26.4L222.58-26.4 223.73-26.4Q223.63-25 223.58-23.08 223.53-21.15 223.53-17.9L223.53-17.9 222.38-17.9Q222.08-19.75 221.36-21.5 220.63-23.25 219.23-24.38 217.83-25.5 215.58-25.5L215.58-25.5Q213.83-25.5 212.66-24.53 211.48-23.55 211.48-21.65L211.48-21.65Q211.48-20.15 212.38-19.07 213.28-18 214.73-17.07 216.18-16.15 217.88-15.05L217.88-15.05Q220.73-13.2 222.73-11.3 224.73-9.4 224.73-6.3L224.73-6.3Q224.73-4 223.53-2.45 222.33-0.9 220.41-0.1 218.48 0.7 216.18 0.7L216.18 0.7Q215.08 0.7 214.11 0.53 213.13 0.35 212.23 0L212.23 0Q211.73-0.25 211.21-0.6 210.68-0.95 210.18-1.35L210.18-1.35Q209.68-1.75 209.28-1.33 208.88-0.9 208.68 0.35L208.68 0.35 207.53 0.35Q207.63-1.25 207.68-3.55 207.73-5.85 207.73-9.65L207.73-9.65 208.88-9.65Q209.23-6.85 209.88-4.75 210.53-2.65 211.93-1.48 213.33-0.3 215.83-0.3L215.83-0.3Q217.33-0.3 218.81-1.35 220.28-2.4 220.28-5.05L220.28-5.05Q220.28-7.25 218.68-8.65 217.08-10.05 214.63-11.6L214.63-11.6Q212.83-12.75 211.26-13.9 209.68-15.05 208.71-16.5 207.73-17.95 207.73-20L207.73-20Q207.73-22.25 208.76-23.68 209.78-25.1 211.48-25.78 213.18-26.45 215.13-26.45Z" opacity="1" transform="matrix(1,0,0,1,0,0)" fill="#130912" class="wordmark-text-0" data-fill-palette-color="primary" id="text-0"></path></svg></g></svg></g><g transform="matrix(1,0,0,1,163.310208,87.82900451529942)"><svg viewBox="0 0 232.209792 20.775114639593905" height="20.775114639593905" width="232.209792"><g transform="matrix(1,0,0,1,0,0)"><svg width="232.209792" viewBox="0.25 -31.5 472.74 42.3" height="20.775114639593905" data-palette-color="#130912"><path d="M19.3-30.6L19.3-31.5 26.1-31.5 26.1-30.6 24.25-30.6Q23.55-30.6 23.3-29.9L23.3-29.9 15.65-11.45 15.65-1.6Q15.65-0.9 16.35-0.9L16.35-0.9 19.95-0.9 19.95 0 7.25 0 7.25-0.9 10.85-0.9Q11.55-0.9 11.55-1.6L11.55-1.6 11.55-11.5 3.05-29.9Q2.7-30.6 2.1-30.6L2.1-30.6 0.25-30.6 0.25-31.5 9.8-31.5 9.8-30.6 7.3-30.6 14.95-14 21.8-30.6 19.3-30.6ZM26.4-2.45Q23.6-5.5 23.6-10.8 23.6-16.1 26.4-19.15 29.2-22.2 33.7-22.2 38.2-22.2 41.02-19.15 43.85-16.1 43.85-10.8 43.85-5.5 41.02-2.45 38.2 0.6 33.7 0.6 29.2 0.6 26.4-2.45ZM29.2-18.32Q27.4-15.55 27.4-10.8 27.4-6.05 29.2-3.28 31-0.5 33.7-0.5 36.4-0.5 38.22-3.28 40.05-6.05 40.05-10.8 40.05-15.55 38.22-18.32 36.4-21.1 33.7-21.1 31-21.1 29.2-18.32ZM67.19-21.9L67.19-21.9 67.19-1.6Q67.19-0.9 67.89-0.9L67.89-0.9 70.25-0.9 70.25 0 67.8 0Q64.8 0 63.59 0.3L63.59 0.3 63.59-6.45Q61.89 0.6 56.09 0.6L56.09 0.6Q53.49 0.6 51.7-1.28 49.89-3.15 49.89-7L49.89-7 49.89-20Q49.89-20.7 49.2-20.7L49.2-20.7 46.84-20.7 46.84-21.6 49.3-21.6Q52.3-21.6 53.49-21.9L53.49-21.9 53.49-6.35Q53.49-3.8 54.62-2.58 55.74-1.35 57.59-1.35L57.59-1.35Q60.24-1.35 61.92-4.58 63.59-7.8 63.59-13.85L63.59-13.85 63.59-20Q63.59-20.7 62.89-20.7L62.89-20.7 60.55-20.7 60.55-21.6 63-21.6Q66-21.6 67.19-21.9ZM86.49-22.2Q88.44-22.2 89.67-20.55 90.89-18.9 90.89-16.4 90.89-13.9 88.84-13.9L88.84-13.9Q87.64-13.9 86.89-14.65L86.89-14.65Q87.54-16.1 87.54-17.6L87.54-17.6Q87.54-20.25 85.34-20.25L85.34-20.25Q83.49-20.25 82.07-17.18 80.64-14.1 80.64-8.25L80.64-8.25 80.64-1.6Q80.64-0.9 81.34-0.9L81.34-0.9 84.69-0.9 84.69 0 73.99 0 73.99-0.9 76.34-0.9Q77.04-0.9 77.04-1.6L77.04-1.6 77.04-20Q77.04-20.7 76.34-20.7L76.34-20.7 73.99-20.7 73.99-21.6 76.44-21.6Q79.44-21.6 80.64-21.9L80.64-21.9 80.64-15.5Q81.44-18.95 82.99-20.58 84.54-22.2 86.49-22.2ZM127.79-1.05L127.79-1.05Q128.54-1.05 129.01-1.68 129.49-2.3 129.49-3.18 129.49-4.05 129.34-4.8L129.34-4.8 130.29-4.95Q130.49-4.2 130.49-3.3L130.49-3.3Q130.49-1.5 129.41-0.45 128.34 0.6 126.64 0.6L126.64 0.6Q122.39 0.6 122.39-4.55 122.39-9.7 121.09-12.13 119.79-14.55 115.79-14.55L115.79-14.55 112.54-14.55 112.54-1.6Q112.54-0.9 113.24-0.9L113.24-0.9 116.59-0.9 116.59 0 105.39 0 105.39-0.9 107.74-0.9Q108.44-0.9 108.44-1.6L108.44-1.6 108.44-30Q108.44-30.6 107.74-30.6L107.74-30.6 105.39-30.6 105.39-31.5 117.84-31.5Q122.04-31.5 124.99-29.2 127.94-26.9 127.94-23.05L127.94-23.05Q127.94-19.95 126.01-17.82 124.09-15.7 120.94-14.9L120.94-14.9Q124.49-13.7 125.44-10.6L125.44-10.6Q126.19-8.05 126.19-4.55 126.19-1.05 127.79-1.05ZM117.59-30.1L117.59-30.1 112.54-30.1 112.54-16 117.59-16Q120.59-16 122.26-18.1 123.94-20.2 123.94-23.05 123.94-25.9 122.26-28 120.59-30.1 117.59-30.1ZM142.24-22.2L142.24-22.2Q145.69-22.2 147.69-19.9 149.69-17.6 149.69-13.15L149.69-13.15Q149.69-12.25 149.59-11.15L149.59-11.15 135.94-11.15 135.94-10.8Q135.94-6.05 137.66-3.33 139.39-0.6 142.11-0.6 144.84-0.6 146.59-2 148.34-3.4 148.99-6L148.99-6 149.94-5.8Q149.34-2.75 147.19-1.07 145.04 0.6 142.24 0.6L142.24 0.6Q137.89 0.6 135.01-2.45 132.14-5.5 132.14-10.78 132.14-16.05 135.04-19.13 137.94-22.2 142.24-22.2ZM146.24-14.85L146.24-14.85Q146.24-21 141.64-21L141.64-21Q139.34-21 137.71-18.5 136.09-16 135.99-12.15L135.99-12.15 146.04-12.15Q146.24-13.85 146.24-14.85ZM164.38-21L164.38-21Q161.53-21 159.76-18.28 157.98-15.55 157.98-10.8 157.98-6.05 159.71-3.33 161.43-0.6 164.16-0.6 166.88-0.6 168.63-2 170.38-3.4 171.03-6L171.03-6 171.98-5.8Q171.38-2.75 169.23-1.07 167.08 0.6 164.28 0.6L164.28 0.6Q159.93 0.6 157.06-2.45 154.18-5.5 154.18-10.8 154.18-16.1 157.08-19.15 159.98-22.2 164.38-22.2L164.38-22.2Q167.78-22.2 169.48-20.68 171.18-19.15 171.18-16.6L171.18-16.6Q171.18-13.3 169.33-13.3L169.33-13.3Q167.83-13.3 166.93-14.1L166.93-14.1Q167.63-15.6 167.63-17.23 167.63-18.85 166.81-19.93 165.98-21 164.38-21ZM178.53-1.6L178.53-1.6 178.53-20Q178.53-20.7 177.83-20.7L177.83-20.7 175.48-20.7 175.48-21.6 177.93-21.6Q180.93-21.6 182.13-21.9L182.13-21.9 182.13-1.5Q182.13-0.9 182.83-0.9L182.83-0.9 185.18-0.9 185.18 0 175.48 0 175.48-0.9 177.83-0.9Q178.53-0.9 178.53-1.6ZM178.66-27.13Q177.98-27.8 177.98-28.8 177.98-29.8 178.66-30.48 179.33-31.15 180.33-31.15 181.33-31.15 182.01-30.48 182.68-29.8 182.68-28.8 182.68-27.8 182.01-27.13 181.33-26.45 180.33-26.45 179.33-26.45 178.66-27.13ZM191.23 9.2L191.23 9.2 191.23-20Q191.23-20.7 190.53-20.7L190.53-20.7 188.18-20.7 188.18-21.6 190.63-21.6Q193.63-21.6 194.83-21.9L194.83-21.9 194.83-14.9Q195.68-18.5 197.55-20.35 199.43-22.2 201.73-22.2L201.73-22.2Q204.88-22.2 207.28-19.05 209.68-15.9 209.68-10.7 209.68-5.5 206.95-2.45 204.23 0.6 199.83 0.6L199.83 0.6Q197.08 0.6 194.83-0.75L194.83-0.75 194.83 9.2Q194.83 9.9 195.53 9.9L195.53 9.9 198.88 9.9 198.88 10.8 188.18 10.8 188.18 9.9 190.53 9.9Q191.23 9.9 191.23 9.2ZM205.88-10.6Q205.88-15.25 204.43-17.78 202.98-20.3 200.75-20.3 198.53-20.3 196.68-17.35 194.83-14.4 194.83-8.85L194.83-8.85 194.83-2.1Q197.03-0.65 199.65-0.65 202.28-0.65 204.08-3.3 205.88-5.95 205.88-10.6ZM223.78-22.2L223.78-22.2Q227.23-22.2 229.23-19.9 231.23-17.6 231.23-13.15L231.23-13.15Q231.23-12.25 231.13-11.15L231.13-11.15 217.48-11.15 217.48-10.8Q217.48-6.05 219.2-3.33 220.93-0.6 223.65-0.6 226.38-0.6 228.13-2 229.88-3.4 230.53-6L230.53-6 231.48-5.8Q230.88-2.75 228.73-1.07 226.58 0.6 223.78 0.6L223.78 0.6Q219.43 0.6 216.55-2.45 213.68-5.5 213.68-10.78 213.68-16.05 216.58-19.13 219.48-22.2 223.78-22.2ZM227.78-14.85L227.78-14.85Q227.78-21 223.18-21L223.18-21Q220.88-21 219.25-18.5 217.63-16 217.53-12.15L217.53-12.15 227.58-12.15Q227.78-13.85 227.78-14.85ZM250.32-30.6L247.97-30.6 247.97-31.5 260.67-31.5Q267.02-31.5 271.02-27.3 275.02-23.1 275.02-15.75 275.02-8.4 271.02-4.2 267.02 0 260.67 0L260.67 0 247.97 0 247.97-0.9 250.32-0.9Q251.02-0.9 251.02-1.5L251.02-1.5 251.02-30Q251.02-30.6 250.32-30.6L250.32-30.6ZM260.67-30.1L260.67-30.1 255.12-30.1 255.12-1.4 260.67-1.4Q264.97-1.4 267.87-5.25 270.77-9.1 270.77-15.75 270.77-22.4 267.87-26.25 264.97-30.1 260.67-30.1ZM288.87-22.2L288.87-22.2Q292.32-22.2 294.32-19.9 296.32-17.6 296.32-13.15L296.32-13.15Q296.32-12.25 296.22-11.15L296.22-11.15 282.57-11.15 282.57-10.8Q282.57-6.05 284.29-3.33 286.02-0.6 288.74-0.6 291.47-0.6 293.22-2 294.97-3.4 295.62-6L295.62-6 296.57-5.8Q295.97-2.75 293.82-1.07 291.67 0.6 288.87 0.6L288.87 0.6Q284.52 0.6 281.64-2.45 278.77-5.5 278.77-10.78 278.77-16.05 281.67-19.13 284.57-22.2 288.87-22.2ZM292.87-14.85L292.87-14.85Q292.87-21 288.27-21L288.27-21Q285.97-21 284.34-18.5 282.72-16 282.62-12.15L282.62-12.15 292.67-12.15Q292.87-13.85 292.87-14.85ZM307.32-13.55L307.32-13.55 312.52-11.6Q314.37-10.9 315.34-9.47 316.32-8.05 316.32-6.3L316.32-6.3Q316.32-3.6 314.17-1.5 312.02 0.6 308.39 0.6 304.77 0.6 301.57-0.75L301.57-0.75Q301.87-1.95 301.87-4.95L301.87-4.95 301.87-6.95 302.77-6.95 303.12-4.35Q303.57-0.6 308.37-0.6L308.37-0.6Q310.52-0.6 311.94-1.93 313.37-3.25 313.37-4.95L313.37-4.95Q313.37-7.3 310.52-8.35L310.52-8.35 305.32-10.3Q303.57-10.95 302.67-12.35 301.77-13.75 301.77-15.5L301.77-15.5Q301.77-18.15 303.67-20.18 305.57-22.2 308.44-22.2 311.32-22.2 314.92-20.85L314.92-20.85Q314.62-19.65 314.62-16.65L314.62-16.65 314.62-14.65 313.72-14.65 313.37-17.25Q312.97-20.85 308.82-20.85L308.82-20.85Q306.97-20.85 305.77-19.7 304.57-18.55 304.57-17L304.57-17Q304.57-14.6 307.32-13.55ZM325.46-26.9L325.46-26.9 326.21-26.9 326.21-21.6 331.21-21.6 331.21-20.7 326.21-20.7 326.21-3.75Q326.21-1.05 327.71-1.05L327.71-1.05Q328.41-1.05 328.94-1.7 329.46-2.35 329.46-3.2 329.46-4.05 329.31-4.8L329.31-4.8 330.26-4.95Q330.46-4.2 330.46-3.3L330.46-3.3Q330.46-1.5 329.39-0.45 328.31 0.6 326.56 0.6 324.81 0.6 323.71-0.83 322.61-2.25 322.61-5.1L322.61-5.1 322.61-20Q322.61-20.7 321.91-20.7L321.91-20.7 319.56-20.7 319.56-21.6 322.01-21.6Q323.61-21.6 325.46-26.9ZM337.51-1.6L337.51-1.6 337.51-20Q337.51-20.7 336.81-20.7L336.81-20.7 334.46-20.7 334.46-21.6 336.91-21.6Q339.91-21.6 341.11-21.9L341.11-21.9 341.11-1.5Q341.11-0.9 341.81-0.9L341.81-0.9 344.16-0.9 344.16 0 334.46 0 334.46-0.9 336.81-0.9Q337.51-0.9 337.51-1.6ZM337.64-27.13Q336.96-27.8 336.96-28.8 336.96-29.8 337.64-30.48 338.31-31.15 339.31-31.15 340.31-31.15 340.99-30.48 341.66-29.8 341.66-28.8 341.66-27.8 340.99-27.13 340.31-26.45 339.31-26.45 338.31-26.45 337.64-27.13ZM368.26-14.6L368.26-14.6 368.26-1.5Q368.26-0.9 368.96-0.9L368.96-0.9 371.31-0.9 371.31 0 362.31 0 362.31-0.9 363.96-0.9Q364.66-0.9 364.66-1.5L364.66-1.5 364.66-15.25Q364.66-17.8 363.53-19.03 362.41-20.25 360.56-20.25L360.56-20.25Q357.96-20.25 356.26-17.18 354.56-14.1 354.56-8.35L354.56-8.35 354.56-1.6Q354.56-0.9 355.26-0.9L355.26-0.9 356.91-0.9 356.91 0 347.91 0 347.91-0.9 350.26-0.9Q350.96-0.9 350.96-1.5L350.96-1.5 350.96-20Q350.96-20.7 350.26-20.7L350.26-20.7 347.91-20.7 347.91-21.6 350.36-21.6Q353.36-21.6 354.56-21.9L354.56-21.9 354.56-15.1Q356.26-22.2 362.06-22.2L362.06-22.2Q364.66-22.2 366.46-20.33 368.26-18.45 368.26-14.6ZM387.36-11.2L387.36-11.65 387.41-13.4 387.41-15.15Q387.41-21 383.61-21L383.61-21Q381.95-21 381.03-19.88 380.11-18.75 380.11-17.25 380.11-15.75 380.5-14.65L380.5-14.65Q379.66-13.9 378.16-13.9 376.66-13.9 376.66-16.35 376.66-18.8 378.58-20.5 380.5-22.2 384.06-22.2L384.06-22.2Q391-22.2 391-14L391-14 391-3.75Q391-1.05 392.5-1.05L392.5-1.05Q393.2-1.05 393.73-1.7 394.25-2.35 394.25-3.2 394.25-4.05 394.11-4.8L394.11-4.8 395.06-4.95Q395.25-4.2 395.25-3.3L395.25-3.3Q395.25-1.5 394.18-0.45 393.11 0.6 391.36 0.6 389.61 0.6 388.5-0.83 387.41-2.25 387.41-5.1L387.41-5.1 387.41-6Q386.56-2.6 384.7-1 382.86 0.6 380.43 0.6 378 0.6 376.53-0.93 375.06-2.45 375.06-4.98 375.06-7.5 377.41-9.47 379.75-11.45 384.16-11.45L384.16-11.45Q385.11-11.45 387.36-11.2L387.36-11.2ZM381.56-1.3L381.56-1.3Q383.66-1.3 385.33-3.68 387-6.05 387.31-10.35L387.31-10.35Q386.81-10.4 385.91-10.4L385.91-10.4Q381.91-10.4 380.18-8.72 378.45-7.05 378.45-4.85L378.45-4.85Q378.45-3.4 379.31-2.35 380.16-1.3 381.56-1.3ZM402.9-26.9L402.9-26.9 403.65-26.9 403.65-21.6 408.65-21.6 408.65-20.7 403.65-20.7 403.65-3.75Q403.65-1.05 405.15-1.05L405.15-1.05Q405.85-1.05 406.38-1.7 406.9-2.35 406.9-3.2 406.9-4.05 406.75-4.8L406.75-4.8 407.7-4.95Q407.9-4.2 407.9-3.3L407.9-3.3Q407.9-1.5 406.83-0.45 405.75 0.6 404 0.6 402.25 0.6 401.15-0.83 400.05-2.25 400.05-5.1L400.05-5.1 400.05-20Q400.05-20.7 399.35-20.7L399.35-20.7 397-20.7 397-21.6 399.45-21.6Q401.05-21.6 402.9-26.9ZM414.95-1.6L414.95-1.6 414.95-20Q414.95-20.7 414.25-20.7L414.25-20.7 411.9-20.7 411.9-21.6 414.35-21.6Q417.35-21.6 418.55-21.9L418.55-21.9 418.55-1.5Q418.55-0.9 419.25-0.9L419.25-0.9 421.6-0.9 421.6 0 411.9 0 411.9-0.9 414.25-0.9Q414.95-0.9 414.95-1.6ZM415.07-27.13Q414.4-27.8 414.4-28.8 414.4-29.8 415.07-30.48 415.75-31.15 416.75-31.15 417.75-31.15 418.42-30.48 419.1-29.8 419.1-28.8 419.1-27.8 418.42-27.13 417.75-26.45 416.75-26.45 415.75-26.45 415.07-27.13ZM427.9-2.45Q425.1-5.5 425.1-10.8 425.1-16.1 427.9-19.15 430.7-22.2 435.2-22.2 439.7-22.2 442.52-19.15 445.35-16.1 445.35-10.8 445.35-5.5 442.52-2.45 439.7 0.6 435.2 0.6 430.7 0.6 427.9-2.45ZM430.7-18.32Q428.9-15.55 428.9-10.8 428.9-6.05 430.7-3.28 432.5-0.5 435.2-0.5 437.9-0.5 439.72-3.28 441.55-6.05 441.55-10.8 441.55-15.55 439.72-18.32 437.9-21.1 435.2-21.1 432.5-21.1 430.7-18.32ZM469.94-14.6L469.94-14.6 469.94-1.5Q469.94-0.9 470.64-0.9L470.64-0.9 472.99-0.9 472.99 0 463.99 0 463.99-0.9 465.64-0.9Q466.34-0.9 466.34-1.5L466.34-1.5 466.34-15.25Q466.34-17.8 465.22-19.03 464.09-20.25 462.24-20.25L462.24-20.25Q459.64-20.25 457.94-17.18 456.24-14.1 456.24-8.35L456.24-8.35 456.24-1.6Q456.24-0.9 456.94-0.9L456.94-0.9 458.59-0.9 458.59 0 449.59 0 449.59-0.9 451.94-0.9Q452.64-0.9 452.64-1.5L452.64-1.5 452.64-20Q452.64-20.7 451.94-20.7L451.94-20.7 449.59-20.7 449.59-21.6 452.04-21.6Q455.04-21.6 456.24-21.9L456.24-21.9 456.24-15.1Q457.94-22.2 463.74-22.2L463.74-22.2Q466.34-22.2 468.14-20.33 469.94-18.45 469.94-14.6Z" opacity="1" transform="matrix(1,0,0,1,0,0)" fill="#130912" class="slogan-text-1" data-fill-palette-color="secondary" id="text-1"></path></svg></g></svg></g></svg></g></svg></g><g transform="matrix(1,0,0,1,435.476402686105,0)"><svg viewBox="0 0 213.42993165789616 150.09089267206258" height="150.09089267206258" width="213.42993165789616"><g><svg xmlns="http://www.w3.org/2000/svg" xmlns:xlink="http://www.w3.org/1999/xlink" version="1.1" x="0" y="0" viewBox="10.625 21.4 78.77905183549042 55.4" enable-background="new 0 0 100 100" xml:space="preserve" height="150.09089267206258" width="213.42993165789616" class="icon-icon-0" data-fill-palette-color="accent" id="icon-0"><g fill="#ff9d47" data-fill-palette-color="accent"><path fill="#ff9d47" d="M89.3 67.3c-0.2-0.5-0.7-0.8-1.2-0.8h-4v-1.7c0-2.1-1.5-3.7-3.4-3.7H55.9c-2 0-3.4 1.6-3.4 3.7v1.7h-38c-0.5 0-1 0.3-1.2 0.8s-0.1 1 0.3 1.4c0.9 0.8 8.7 8.1 12.9 8.1h49.7c4.2 0 12-7.2 12.9-8.1C89.4 68.4 89.5 67.8 89.3 67.3zM55 64.8c0-0.1 0-1.1 0.9-1.1h24.8c0.7 0 0.9 0.7 0.9 1.1v1.7H55V64.8zM76.1 74.2H26.4c-1.8 0-5.6-2.6-8.6-5.1h66.9C81.7 71.6 77.9 74.2 76.1 74.2z" data-fill-palette-color="accent"></path><path fill="#ff9d47" d="M54.5 49.2l3.2-2.3 4.5 2.4c0.4 0.2 0.9 0.2 1.3 0l4.2-2.5 5 2.5c0.4 0.2 0.8 0.2 1.2 0l4.2-2.4 4 2.4c0.2 0.1 0.4 0.2 0.7 0.2 0.4 0 0.9-0.2 1.1-0.6 0.4-0.6 0.2-1.4-0.4-1.8l-4.7-2.8c-0.4-0.2-0.9-0.2-1.3 0l-4.2 2.5-5-2.5c-0.4-0.2-0.8-0.2-1.2 0l-4.2 2.4-4.6-2.5c-0.4-0.2-1-0.2-1.4 0.1l-3.8 2.8c-0.6 0.4-0.7 1.2-0.3 1.8C53.1 49.5 53.9 49.6 54.5 49.2z" data-fill-palette-color="accent"></path><path fill="#ff9d47" d="M55.6 58.6h25.3c2 0 3.7-1.7 3.7-3.7 0-2-1.7-3.7-3.7-3.7H55.6c-2 0-3.7 1.7-3.7 3.7C51.9 56.9 53.6 58.6 55.6 58.6zM55.6 53.7h25.3c0.6 0 1.1 0.5 1.1 1.1S81.5 56 80.9 56H55.6c-0.6 0-1.1-0.5-1.1-1.1S55 53.7 55.6 53.7z" data-fill-palette-color="accent"></path><path fill="#ff9d47" d="M53.7 41.6h29.1c0.7 0 1.3-0.6 1.3-1.3 0-5.5-4.3-14.3-15.8-14.3s-15.8 8.8-15.8 14.3C52.4 41 53 41.6 53.7 41.6zM68.3 28.6c9.6 0 12.6 6.6 13.2 10.4H55.1C55.7 35.2 58.6 28.6 68.3 28.6z" data-fill-palette-color="accent"></path><path fill="#ff9d47" d="M31 45.6v8.8c0 0.7 0.6 1.3 1.3 1.3 0.7 0 1.3-0.6 1.3-1.3v-8.8C37.8 45 47.2 41.4 47.2 29v-6.3c0-0.7-0.6-1.3-1.3-1.3H18.6c-0.7 0-1.3 0.6-1.3 1.3V29C17.3 41.4 26.7 45 31 45.6zM32.3 43.2c-2.5 0-11.6-2.2-12.3-12.9h24.6C43.9 40.9 34.8 43.2 32.3 43.2zM44.6 23.9v3.8H19.9v-3.8H44.6z" data-fill-palette-color="accent"></path><circle fill="#ff9d47" cx="60.2" cy="35.6" r="1.2" data-fill-palette-color="accent"></circle><circle fill="#ff9d47" cx="64" cy="32.6" r="1.2" data-fill-palette-color="accent"></circle><circle fill="#ff9d47" cx="68.1" cy="35.6" r="1.2" data-fill-palette-color="accent"></circle><circle fill="#ff9d47" cx="72" cy="32.6" r="1.2" data-fill-palette-color="accent"></circle><circle fill="#ff9d47" cx="75.9" cy="35.6" r="1.2" data-fill-palette-color="accent"></circle><path fill="#ff9d47" d="M17.5 64.5c0.3 0 0.6-0.1 0.9-0.3 0.5-0.5 0.6-1.3 0.1-1.8l-4.8-5.2 1.4-1.5 6.8 7.3c0.5 0.5 1.3 0.6 1.8 0.1 0.5-0.5 0.6-1.3 0.1-1.8l-7.7-8.3c-0.2-0.3-0.6-0.4-0.9-0.4-0.4 0-0.7 0.1-0.9 0.4L11 56.2c-0.5 0.5-0.5 1.3 0 1.8l5.6 6.1C16.8 64.3 17.2 64.5 17.5 64.5z" data-fill-palette-color="accent"></path><path fill="#ff9d47" d="M22 50.3c-0.4 0-0.7 0.1-1 0.4l-1.5 1.6c-0.5 0.5-0.5 1.3 0 1.8s1.3 0.5 1.8 0l0.5-0.5 6.2 7.9c0.3 0.3 0.6 0.5 1 0.5 0.3 0 0.6-0.1 0.8-0.3 0.6-0.4 0.7-1.2 0.2-1.8l-7.1-9C22.8 50.5 22.4 50.3 22 50.3z" data-fill-palette-color="accent"></path><path fill="#ff9d47" d="M46.7 56.3c-0.3-0.2-0.6-0.2-1-0.2l-10.6 2.6c-0.7 0.2-1.1 0.9-0.9 1.6 0.2 0.7 0.9 1.1 1.6 0.9l9.3-2.3 0.4 1.8c-1.7 0.4-3.6 1-3.8 1.1-0.7 0.2-1 1-0.8 1.6 0.2 0.5 0.7 0.9 1.2 0.9 0.1 0 0.3 0 0.4-0.1 0.3-0.1 3.1-0.9 4.8-1.3 0.7-0.2 1.1-0.8 0.9-1.5l-0.9-4.3C47.2 56.8 46.9 56.5 46.7 56.3z" data-fill-palette-color="accent"></path></g></svg></g></svg></g></svg></g><defs></defs></svg><rect width="395.52" height="91.48307964918693" fill="none" stroke="none" visibility="hidden"></rect></g></svg></g></svg>